<?xml version="1.0" encoding="iso-8859-1"?>
<!-- Generator: Adobe Illustrator 19.0.0, SVG Export Plug-In . SVG Version: 6.00 Build 0)  -->
<svg version="1.1" id="Capa_1" xmlns="http://www.w3.org/2000/svg" xmlns:xlink="http://www.w3.org/1999/xlink" x="0px" y="0px"
	 viewBox="0 0 512 512" style="enable-background:new 0 0 512 512;" xml:space="preserve">
<path style="fill:#D8E0E0;" d="M136,224H40c-4.418,0-8,3.582-8,8v224c0,4.418,3.582,8,8,8h96c4.418,0,8-3.582,8-8V232
	C144,227.582,140.418,224,136,224z"/>
<path style="fill:#C5D1D1;" d="M48,456V232c0-4.418,3.582-8,8-8H40c-4.418,0-8,3.582-8,8v224c0,4.418,3.582,8,8,8h16
	C51.582,464,48,460.418,48,456z"/>
<path style="fill:#F37121;" d="M152,168c-4.418,0-8,3.582-8,8v8h-16v-8c0-4.418-3.582-8-8-8s-8,3.582-8,8v8H96v-8
	c0-4.418-3.582-8-8-8s-8,3.582-8,8v8H64v-8c0-4.418-3.582-8-8-8s-8,3.582-8,8v8H32v-8c0-4.418-3.582-8-8-8s-8,3.582-8,8v16v40
	c0,4.418,3.582,8,8,8h128c4.418,0,8-3.582,8-8v-40v-16C160,171.582,156.418,168,152,168z"/>
<path style="fill:#507575;" d="M88,256c-13.234,0-24,10.767-24,24v16c0,4.418,3.582,8,8,8h32c4.418,0,8-3.582,8-8v-16
	C112,266.767,101.234,256,88,256z"/>
<path style="fill:#3C6666;" d="M72,296v-16c0-11.87,8.664-21.75,20-23.66c-1.302-0.219-2.637-0.34-4-0.34c-13.234,0-24,10.767-24,24
	v16c0,4.418,3.582,8,8,8h8C75.582,304,72,300.418,72,296z"/>
<path style="fill:#D8E0E0;" d="M472,224h-96c-4.418,0-8,3.582-8,8v224c0,4.418,3.582,8,8,8h96c4.418,0,8-3.582,8-8V232
	C480,227.582,476.418,224,472,224z"/>
<path style="fill:#C5D1D1;" d="M384,456V232c0-4.418,3.582-8,8-8h-16c-4.418,0-8,3.582-8,8v224c0,4.418,3.582,8,8,8h16
	C387.582,464,384,460.418,384,456z"/>
<path style="fill:#F37121;" d="M488,168c-4.418,0-8,3.582-8,8v8h-16v-8c0-4.418-3.582-8-8-8s-8,3.582-8,8v8h-16v-8
	c0-4.418-3.582-8-8-8s-8,3.582-8,8v8h-16v-8c0-4.418-3.582-8-8-8s-8,3.582-8,8v8h-16v-8c0-4.418-3.582-8-8-8s-8,3.582-8,8v16v40
	c0,4.418,3.582,8,8,8h128c4.418,0,8-3.582,8-8v-40v-16C496,171.582,492.418,168,488,168z"/>
<path style="fill:#507575;" d="M424,256c-13.234,0-24,10.767-24,24v16c0,4.418,3.582,8,8,8h32c4.418,0,8-3.582,8-8v-16
	C448,266.767,437.234,256,424,256z"/>
<path style="fill:#3C6666;" d="M408,296v-16c0-11.87,8.664-21.75,20-23.66c-1.302-0.219-2.637-0.34-4-0.34
	c-13.234,0-24,10.767-24,24v16c0,4.418,3.582,8,8,8h8C411.582,304,408,300.418,408,296z"/>
<path style="fill:#974F2A;" d="M256,88c-4.418,0-8-3.582-8-8V8c0-4.418,3.582-8,8-8s8,3.582,8,8v72C264,84.418,260.418,88,256,88z"
	/>
<path style="fill:#ED3124;" d="M315.969,41.054l-56-32c-2.476-1.413-5.518-1.404-7.985,0.027C249.518,10.512,248,13.148,248,16v32
	c0,4.418,3.582,8,8,8h56c3.627,0,6.801-2.44,7.732-5.946S319.119,42.854,315.969,41.054z"/>
<path style="fill:#F3561D;" d="M334.192,162.935l-72-88C260.672,73.077,258.399,72,256,72s-4.672,1.077-6.192,2.935l-72,88
	c-1.957,2.392-2.361,5.698-1.038,8.491S180.909,176,184,176h144c3.091,0,5.906-1.781,7.229-4.574S336.149,165.326,334.192,162.935z"
	/>
<path style="fill:#C5D1D1;" d="M328,336c4.418,0,8-3.582,8-8V168H176v160c0,4.418,3.582,8,8,8H328z"/>
<path style="fill:#B1C2C2;" d="M192,328V168h-16v160c0,4.418,3.582,8,8,8h16C195.582,336,192,332.418,192,328z"/>
<path style="fill:#507575;" d="M288,184c-13.234,0-24,10.767-24,24v16c0,4.418,3.582,8,8,8h32c4.418,0,8-3.582,8-8v-16
	C312,194.767,301.234,184,288,184z"/>
<path style="fill:#3C6666;" d="M272,224v-16c0-11.87,8.664-21.75,20-23.66c-1.302-0.219-2.637-0.34-4-0.34
	c-13.234,0-24,10.767-24,24v16c0,4.418,3.582,8,8,8h8C275.582,232,272,228.418,272,224z"/>
<path style="fill:#507575;" d="M224,184c-13.234,0-24,10.767-24,24v16c0,4.418,3.582,8,8,8h32c4.418,0,8-3.582,8-8v-16
	C248,194.767,237.234,184,224,184z"/>
<path style="fill:#3C6666;" d="M208,224v-16c0-11.87,8.664-21.75,20-23.66c-1.302-0.219-2.637-0.34-4-0.34
	c-13.234,0-24,10.767-24,24v16c0,4.418,3.582,8,8,8h8C211.582,232,208,228.418,208,224z"/>
<g>
	<path style="fill:#8AA3A3;" d="M256,280c-4.418,0-8-3.582-8-8v-8c0-4.418,3.582-8,8-8s8,3.582,8,8v8
		C264,276.418,260.418,280,256,280z"/>
	<path style="fill:#8AA3A3;" d="M280,280c-4.418,0-8-3.582-8-8v-8c0-4.418,3.582-8,8-8s8,3.582,8,8v8
		C288,276.418,284.418,280,280,280z"/>
	<path style="fill:#8AA3A3;" d="M304,280c-4.418,0-8-3.582-8-8v-8c0-4.418,3.582-8,8-8s8,3.582,8,8v8
		C312,276.418,308.418,280,304,280z"/>
	<path style="fill:#8AA3A3;" d="M232,280c-4.418,0-8-3.582-8-8v-8c0-4.418,3.582-8,8-8s8,3.582,8,8v8
		C240,276.418,236.418,280,232,280z"/>
	<path style="fill:#8AA3A3;" d="M208,280c-4.418,0-8-3.582-8-8v-8c0-4.418,3.582-8,8-8s8,3.582,8,8v8
		C216,276.418,212.418,280,208,280z"/>
</g>
<path style="fill:#ECF0F0;" d="M504,320H8c-4.418,0-8,3.582-8,8v176c0,4.418,3.582,8,8,8h496c4.418,0,8-3.582,8-8V328
	C512,323.582,508.418,320,504,320z"/>
<path style="fill:#C5D1D1;" d="M24,504V328c0-4.418,3.582-8,8-8H8c-4.418,0-8,3.582-8,8v176c0,4.418,3.582,8,8,8h24
	C27.582,512,24,508.418,24,504z"/>
<path style="fill:#507575;" d="M255.289,352.003C215.652,352.388,184,385.279,184,424.918V512h144v-88
	C328,384.062,295.314,351.615,255.289,352.003z"/>
<path style="fill:#3C6666;" d="M267.987,353.021c-4.128-0.695-8.366-1.06-12.698-1.018C215.652,352.388,184,385.279,184,424.918V512
	h24v-87.082C208,389.13,233.803,358.851,267.987,353.021z"/>
<path style="fill:#507575;" d="M72,384c-13.234,0-24,10.767-24,24v24c0,4.418,3.582,8,8,8h32c4.418,0,8-3.582,8-8v-24
	C96,394.767,85.234,384,72,384z"/>
<path style="fill:#3C6666;" d="M56,432v-24c0-11.87,8.664-21.75,20-23.66c-1.302-0.219-2.637-0.34-4-0.34c-13.234,0-24,10.767-24,24
	v24c0,4.418,3.582,8,8,8h8C59.582,440,56,436.418,56,432z"/>
<path style="fill:#507575;" d="M136,384c-13.234,0-24,10.767-24,24v24c0,4.418,3.582,8,8,8h32c4.418,0,8-3.582,8-8v-24
	C160,394.767,149.234,384,136,384z"/>
<path style="fill:#3C6666;" d="M120,432v-24c0-11.87,8.664-21.75,20-23.66c-1.302-0.219-2.637-0.34-4-0.34
	c-13.234,0-24,10.767-24,24v24c0,4.418,3.582,8,8,8h8C123.582,440,120,436.418,120,432z"/>
<path style="fill:#507575;" d="M376,384c-13.234,0-24,10.767-24,24v24c0,4.418,3.582,8,8,8h32c4.418,0,8-3.582,8-8v-24
	C400,394.767,389.234,384,376,384z"/>
<path style="fill:#3C6666;" d="M360,432v-24c0-11.87,8.664-21.75,20-23.66c-1.302-0.219-2.637-0.34-4-0.34
	c-13.234,0-24,10.767-24,24v24c0,4.418,3.582,8,8,8h8C363.582,440,360,436.418,360,432z"/>
<path style="fill:#507575;" d="M440,384c-13.234,0-24,10.767-24,24v24c0,4.418,3.582,8,8,8h32c4.418,0,8-3.582,8-8v-24
	C464,394.767,453.234,384,440,384z"/>
<path style="fill:#3C6666;" d="M424,432v-24c0-11.87,8.664-21.75,20-23.66c-1.302-0.219-2.637-0.34-4-0.34
	c-13.234,0-24,10.767-24,24v24c0,4.418,3.582,8,8,8h8C427.582,440,424,436.418,424,432z"/>
<g>
</g>
<g>
</g>
<g>
</g>
<g>
</g>
<g>
</g>
<g>
</g>
<g>
</g>
<g>
</g>
<g>
</g>
<g>
</g>
<g>
</g>
<g>
</g>
<g>
</g>
<g>
</g>
<g>
</g>
</svg>
